<?xml version="1.0" encoding="iso-8859-1"?>
<!-- Generator: Adobe Illustrator 25.0.0, SVG Export Plug-In . SVG Version: 6.00 Build 0)  -->
<svg version="1.1" baseProfile="tiny" xmlns="http://www.w3.org/2000/svg" xmlns:xlink="http://www.w3.org/1999/xlink" x="0px"
	 y="0px" width="1900px" height="900px" viewBox="0 0 2171.605 841.89" overflow="visible" xml:space="preserve">
<g id="grid">
	<g>
		<line fill="none" stroke="#E30613" stroke-width="0.1" stroke-miterlimit="10" x1="171" y1="432" x2="423" y2="432"/>
		<line fill="none" stroke="#E30613" stroke-width="0.1" stroke-miterlimit="10" x1="171" y1="423" x2="423" y2="423"/>
		<line fill="none" stroke="#E30613" stroke-width="0.1" stroke-miterlimit="10" x1="171" y1="441" x2="423" y2="441"/>
		<line fill="none" stroke="#E30613" stroke-width="0.1" stroke-miterlimit="10" x1="297" y1="54" x2="297" y2="810"/>
		<line fill="none" stroke="#E30613" stroke-width="0.1" stroke-miterlimit="10" x1="306" y1="54" x2="306" y2="810"/>
		<line fill="none" stroke="#E30613" stroke-width="0.1" stroke-miterlimit="10" x1="414" y1="54" x2="414" y2="810"/>
		<line fill="none" stroke="#E30613" stroke-width="0.1" stroke-miterlimit="10" x1="423" y1="54" x2="423" y2="810"/>
		<line fill="none" stroke="#E30613" stroke-width="0.1" stroke-miterlimit="10" x1="180" y1="54" x2="180" y2="810"/>
		<line fill="none" stroke="#E30613" stroke-width="0.1" stroke-miterlimit="10" x1="171" y1="54" x2="171" y2="810"/>
		<line fill="none" stroke="#E30613" stroke-width="0.1" stroke-miterlimit="10" x1="288" y1="54" x2="288" y2="810"/>
		<circle fill="none" stroke="#E30613" stroke-width="0.1" stroke-miterlimit="10" cx="297" cy="432" r="126"/>
		<circle fill="none" stroke="#E30613" stroke-width="0.1" stroke-miterlimit="10" cx="297" cy="432" r="117"/>
		<circle fill="none" stroke="#E30613" stroke-width="0.1" stroke-miterlimit="10" cx="180" cy="432" r="9"/>
		<circle fill="none" stroke="#E30613" stroke-width="0.1" stroke-miterlimit="10" cx="297" cy="432" r="9"/>
		<circle fill="none" stroke="#E30613" stroke-width="0.1" stroke-miterlimit="10" cx="414" cy="432" r="9"/>
		<line fill="none" stroke="#E30613" stroke-width="0.1" stroke-miterlimit="10" x1="171" y1="306" x2="423" y2="306"/>
		<line fill="none" stroke="#E30613" stroke-width="0.1" stroke-miterlimit="10" x1="171" y1="315" x2="423" y2="315"/>
		<line fill="none" stroke="#E30613" stroke-width="0.1" stroke-miterlimit="10" x1="171" y1="297" x2="423" y2="297"/>
		<circle fill="none" stroke="#E30613" stroke-width="0.1" stroke-miterlimit="10" cx="297" cy="306" r="126"/>
		<circle fill="none" stroke="#E30613" stroke-width="0.1" stroke-miterlimit="10" cx="297" cy="306" r="117"/>
		<circle fill="none" stroke="#E30613" stroke-width="0.1" stroke-miterlimit="10" cx="180" cy="306" r="9"/>
		<circle fill="none" stroke="#E30613" stroke-width="0.1" stroke-miterlimit="10" cx="297" cy="306" r="9"/>
		<circle fill="none" stroke="#E30613" stroke-width="0.1" stroke-miterlimit="10" cx="414" cy="306" r="9"/>
		<line fill="none" stroke="#E30613" stroke-width="0.1" stroke-miterlimit="10" x1="171" y1="180" x2="423" y2="180"/>
		<line fill="none" stroke="#E30613" stroke-width="0.1" stroke-miterlimit="10" x1="171" y1="189" x2="423" y2="189"/>
		<line fill="none" stroke="#E30613" stroke-width="0.1" stroke-miterlimit="10" x1="171" y1="171" x2="423" y2="171"/>
		<circle fill="none" stroke="#E30613" stroke-width="0.1" stroke-miterlimit="10" cx="297" cy="180" r="126"/>
		<circle fill="none" stroke="#E30613" stroke-width="0.1" stroke-miterlimit="10" cx="297" cy="180" r="117"/>
		<circle fill="none" stroke="#E30613" stroke-width="0.1" stroke-miterlimit="10" cx="180" cy="180" r="9"/>
		<circle fill="none" stroke="#E30613" stroke-width="0.1" stroke-miterlimit="10" cx="297" cy="180" r="9"/>
		<circle fill="none" stroke="#E30613" stroke-width="0.1" stroke-miterlimit="10" cx="414" cy="180" r="9"/>
		<line fill="none" stroke="#E30613" stroke-width="0.1" stroke-miterlimit="10" x1="171" y1="54" x2="423" y2="54"/>
		<line fill="none" stroke="#E30613" stroke-width="0.1" stroke-miterlimit="10" x1="171" y1="63" x2="423" y2="63"/>
		<path fill="none" stroke="#E30613" stroke-width="0.1" stroke-miterlimit="10" d="M423,54c0,69.588-56.412,126-126,126
			S171,123.588,171,54"/>
		<path fill="none" stroke="#E30613" stroke-width="0.1" stroke-miterlimit="10" d="M414,54c0,64.617-52.383,117-117,117
			S180,118.617,180,54"/>
		<path fill="none" stroke="#E30613" stroke-width="0.1" stroke-miterlimit="10" d="M189,54c0,4.971-4.029,9-9,9
			c-4.971,0-9-4.029-9-9"/>
		<path fill="none" stroke="#E30613" stroke-width="0.1" stroke-miterlimit="10" d="M306,54c0,4.971-4.029,9-9,9
			c-4.971,0-9-4.029-9-9"/>
		<path fill="none" stroke="#E30613" stroke-width="0.1" stroke-miterlimit="10" d="M423,54c0,4.971-4.029,9-9,9
			c-4.971,0-9-4.029-9-9"/>
		<line fill="none" stroke="#E30613" stroke-width="0.1" stroke-miterlimit="10" x1="171" y1="558" x2="423" y2="558"/>
		<line fill="none" stroke="#E30613" stroke-width="0.1" stroke-miterlimit="10" x1="171" y1="549" x2="423" y2="549"/>
		<line fill="none" stroke="#E30613" stroke-width="0.1" stroke-miterlimit="10" x1="171" y1="567" x2="423" y2="567"/>
		<circle fill="none" stroke="#E30613" stroke-width="0.1" stroke-miterlimit="10" cx="297" cy="558" r="126"/>
		<circle fill="none" stroke="#E30613" stroke-width="0.1" stroke-miterlimit="10" cx="297" cy="558" r="117"/>
		<circle fill="none" stroke="#E30613" stroke-width="0.1" stroke-miterlimit="10" cx="180" cy="558" r="9"/>
		<circle fill="none" stroke="#E30613" stroke-width="0.1" stroke-miterlimit="10" cx="297" cy="558" r="9"/>
		<circle fill="none" stroke="#E30613" stroke-width="0.1" stroke-miterlimit="10" cx="414" cy="558" r="9"/>
		<line fill="none" stroke="#E30613" stroke-width="0.1" stroke-miterlimit="10" x1="171" y1="684" x2="423" y2="684"/>
		<line fill="none" stroke="#E30613" stroke-width="0.1" stroke-miterlimit="10" x1="171" y1="675" x2="423" y2="675"/>
		<line fill="none" stroke="#E30613" stroke-width="0.1" stroke-miterlimit="10" x1="171" y1="693" x2="423" y2="693"/>
		<circle fill="none" stroke="#E30613" stroke-width="0.1" stroke-miterlimit="10" cx="297" cy="684" r="126"/>
		<circle fill="none" stroke="#E30613" stroke-width="0.1" stroke-miterlimit="10" cx="297" cy="684" r="117"/>
		<circle fill="none" stroke="#E30613" stroke-width="0.1" stroke-miterlimit="10" cx="180" cy="684" r="9"/>
		<circle fill="none" stroke="#E30613" stroke-width="0.1" stroke-miterlimit="10" cx="297" cy="684" r="9"/>
		<circle fill="none" stroke="#E30613" stroke-width="0.1" stroke-miterlimit="10" cx="414" cy="684" r="9"/>
		<line fill="none" stroke="#E30613" stroke-width="0.1" stroke-miterlimit="10" x1="171" y1="810" x2="423" y2="810"/>
		<line fill="none" stroke="#E30613" stroke-width="0.1" stroke-miterlimit="10" x1="171" y1="801" x2="423" y2="801"/>
		<path fill="none" stroke="#E30613" stroke-width="0.1" stroke-miterlimit="10" d="M171,810c0-69.588,56.412-126,126-126
			s126,56.412,126,126"/>
		<path fill="none" stroke="#E30613" stroke-width="0.1" stroke-miterlimit="10" d="M180,810c0-64.617,52.383-117,117-117
			s117,52.383,117,117"/>
		<path fill="none" stroke="#E30613" stroke-width="0.1" stroke-miterlimit="10" d="M171,810c0-4.971,4.029-9,9-9
			c4.971,0,9,4.029,9,9"/>
		<path fill="none" stroke="#E30613" stroke-width="0.1" stroke-miterlimit="10" d="M288,810c0-4.971,4.029-9,9-9
			c4.971,0,9,4.029,9,9"/>
		<path fill="none" stroke="#E30613" stroke-width="0.1" stroke-miterlimit="10" d="M405,810c0-4.971,4.029-9,9-9
			c4.971,0,9,4.029,9,9"/>
	</g>
	<g>
		
			<line fill="none" stroke="#E30613" stroke-width="0.1" stroke-miterlimit="10" x1="1653.395" y1="431.105" x2="1905.395" y2="431.105"/>
		
			<line fill="none" stroke="#E30613" stroke-width="0.1" stroke-miterlimit="10" x1="1653.395" y1="386.105" x2="1905.395" y2="386.105"/>
		
			<line fill="none" stroke="#E30613" stroke-width="0.1" stroke-miterlimit="10" x1="1653.395" y1="476.105" x2="1905.395" y2="476.105"/>
		
			<line fill="none" stroke="#E30613" stroke-width="0.1" stroke-miterlimit="10" x1="1779.395" y1="53.105" x2="1779.395" y2="809.105"/>
		
			<line fill="none" stroke="#E30613" stroke-width="0.1" stroke-miterlimit="10" x1="1824.395" y1="53.105" x2="1824.395" y2="800.105"/>
		
			<line fill="none" stroke="#E30613" stroke-width="0.1" stroke-miterlimit="10" x1="1860.395" y1="53.105" x2="1860.395" y2="809.105"/>
		
			<line fill="none" stroke="#E30613" stroke-width="0.1" stroke-miterlimit="10" x1="1905.395" y1="53.105" x2="1905.395" y2="809.105"/>
		
			<line fill="none" stroke="#E30613" stroke-width="0.1" stroke-miterlimit="10" x1="1698.395" y1="53.105" x2="1698.395" y2="809.105"/>
		
			<line fill="none" stroke="#E30613" stroke-width="0.1" stroke-miterlimit="10" x1="1653.395" y1="53.105" x2="1653.395" y2="809.105"/>
		
			<line fill="none" stroke="#E30613" stroke-width="0.1" stroke-miterlimit="10" x1="1734.395" y1="53.105" x2="1734.395" y2="809.105"/>
		<circle fill="none" stroke="#E30613" stroke-width="0.1" stroke-miterlimit="10" cx="1779.395" cy="431.105" r="126"/>
		<circle fill="none" stroke="#E30613" stroke-width="0.1" stroke-miterlimit="10" cx="1779.395" cy="431.105" r="81"/>
		<circle fill="none" stroke="#E30613" stroke-width="0.1" stroke-miterlimit="10" cx="1779.395" cy="431.105" r="45"/>
		<circle fill="none" stroke="#E30613" stroke-width="0.1" stroke-miterlimit="10" cx="1860.395" cy="431.105" r="45"/>
		<circle fill="none" stroke="#E30613" stroke-width="0.1" stroke-miterlimit="10" cx="1698.395" cy="431.105" r="45"/>
		
			<line fill="none" stroke="#E30613" stroke-width="0.1" stroke-miterlimit="10" x1="1653.395" y1="305.105" x2="1905.395" y2="305.105"/>
		
			<line fill="none" stroke="#E30613" stroke-width="0.1" stroke-miterlimit="10" x1="1653.395" y1="350.105" x2="1905.395" y2="350.105"/>
		
			<line fill="none" stroke="#E30613" stroke-width="0.1" stroke-miterlimit="10" x1="1653.395" y1="260.105" x2="1905.395" y2="260.105"/>
		<circle fill="none" stroke="#E30613" stroke-width="0.1" stroke-miterlimit="10" cx="1779.395" cy="305.105" r="126"/>
		<circle fill="none" stroke="#E30613" stroke-width="0.1" stroke-miterlimit="10" cx="1779.395" cy="305.105" r="81"/>
		<circle fill="none" stroke="#E30613" stroke-width="0.1" stroke-miterlimit="10" cx="1698.395" cy="305.105" r="45"/>
		<circle fill="none" stroke="#E30613" stroke-width="0.1" stroke-miterlimit="10" cx="1779.395" cy="305.105" r="45"/>
		<circle fill="none" stroke="#E30613" stroke-width="0.1" stroke-miterlimit="10" cx="1860.395" cy="305.105" r="45"/>
		
			<line fill="none" stroke="#E30613" stroke-width="0.1" stroke-miterlimit="10" x1="1653.395" y1="179.105" x2="1905.395" y2="179.105"/>
		
			<line fill="none" stroke="#E30613" stroke-width="0.1" stroke-miterlimit="10" x1="1653.395" y1="224.105" x2="1905.395" y2="224.105"/>
		
			<line fill="none" stroke="#E30613" stroke-width="0.1" stroke-miterlimit="10" x1="1653.395" y1="134.105" x2="1905.395" y2="134.105"/>
		<circle fill="none" stroke="#E30613" stroke-width="0.1" stroke-miterlimit="10" cx="1779.395" cy="179.105" r="126"/>
		<circle fill="none" stroke="#E30613" stroke-width="0.1" stroke-miterlimit="10" cx="1779.395" cy="179.105" r="81"/>
		<circle fill="none" stroke="#E30613" stroke-width="0.1" stroke-miterlimit="10" cx="1698.395" cy="179.105" r="45"/>
		<circle fill="none" stroke="#E30613" stroke-width="0.1" stroke-miterlimit="10" cx="1779.395" cy="179.105" r="45"/>
		<circle fill="none" stroke="#E30613" stroke-width="0.1" stroke-miterlimit="10" cx="1860.395" cy="179.105" r="45"/>
		<path fill="none" stroke="#E30613" stroke-width="0.1" stroke-miterlimit="10" d="M1860.395,53.105c0,44.735-36.265,81-81,81
			c-44.735,0-81-36.265-81-81"/>
		<path fill="none" stroke="#E30613" stroke-width="0.1" stroke-miterlimit="10" d="M1743.395,53.105c0,24.853-20.147,45-45,45
			s-45-20.147-45-45"/>
		<path fill="none" stroke="#E30613" stroke-width="0.1" stroke-miterlimit="10" d="M1824.395,53.105c0,24.853-20.147,45-45,45
			s-45-20.147-45-45"/>
		<path fill="none" stroke="#E30613" stroke-width="0.1" stroke-miterlimit="10" d="M1905.395,53.105c0,24.853-20.147,45-45,45
			s-45-20.147-45-45"/>
		
			<line fill="none" stroke="#E30613" stroke-width="0.1" stroke-miterlimit="10" x1="1653.395" y1="53.105" x2="1905.395" y2="53.105"/>
		
			<line fill="none" stroke="#E30613" stroke-width="0.1" stroke-miterlimit="10" x1="1653.395" y1="98.105" x2="1905.395" y2="98.105"/>
		<path fill="none" stroke="#E30613" stroke-width="0.1" stroke-miterlimit="10" d="M1905.395,53.105c0,69.588-56.412,126-126,126
			s-126-56.412-126-126"/>
		
			<line fill="none" stroke="#E30613" stroke-width="0.1" stroke-miterlimit="10" x1="1653.395" y1="557.105" x2="1905.395" y2="557.105"/>
		
			<line fill="none" stroke="#E30613" stroke-width="0.1" stroke-miterlimit="10" x1="1653.395" y1="512.105" x2="1905.395" y2="512.105"/>
		
			<line fill="none" stroke="#E30613" stroke-width="0.1" stroke-miterlimit="10" x1="1653.395" y1="602.105" x2="1905.395" y2="602.105"/>
		<circle fill="none" stroke="#E30613" stroke-width="0.1" stroke-miterlimit="10" cx="1779.395" cy="557.105" r="126"/>
		<circle fill="none" stroke="#E30613" stroke-width="0.1" stroke-miterlimit="10" cx="1779.395" cy="557.105" r="81"/>
		<path fill="none" stroke="#E30613" stroke-width="0.1" stroke-miterlimit="10" d="M1698.395,809.105c0-44.735,36.265-81,81-81
			c44.735,0,81,36.265,81,81"/>
		<circle fill="none" stroke="#E30613" stroke-width="0.1" stroke-miterlimit="10" cx="1698.395" cy="557.105" r="45"/>
		<circle fill="none" stroke="#E30613" stroke-width="0.1" stroke-miterlimit="10" cx="1779.395" cy="557.105" r="45"/>
		<circle fill="none" stroke="#E30613" stroke-width="0.1" stroke-miterlimit="10" cx="1860.395" cy="557.105" r="45"/>
		
			<line fill="none" stroke="#E30613" stroke-width="0.1" stroke-miterlimit="10" x1="1653.395" y1="683.105" x2="1905.395" y2="683.105"/>
		
			<line fill="none" stroke="#E30613" stroke-width="0.1" stroke-miterlimit="10" x1="1653.395" y1="638.105" x2="1905.395" y2="638.105"/>
		
			<line fill="none" stroke="#E30613" stroke-width="0.1" stroke-miterlimit="10" x1="1653.395" y1="728.105" x2="1905.395" y2="728.105"/>
		<circle fill="none" stroke="#E30613" stroke-width="0.1" stroke-miterlimit="10" cx="1779.395" cy="683.105" r="126"/>
		<circle fill="none" stroke="#E30613" stroke-width="0.1" stroke-miterlimit="10" cx="1779.395" cy="683.105" r="81"/>
		<circle fill="none" stroke="#E30613" stroke-width="0.1" stroke-miterlimit="10" cx="1698.395" cy="683.105" r="45"/>
		<circle fill="none" stroke="#E30613" stroke-width="0.1" stroke-miterlimit="10" cx="1779.395" cy="683.105" r="45"/>
		<circle fill="none" stroke="#E30613" stroke-width="0.1" stroke-miterlimit="10" cx="1860.395" cy="683.105" r="45"/>
		<path fill="none" stroke="#E30613" stroke-width="0.1" stroke-miterlimit="10" d="M1653.395,809.105c0-24.853,20.147-45,45-45
			s45,20.147,45,45"/>
		<path fill="none" stroke="#E30613" stroke-width="0.1" stroke-miterlimit="10" d="M1734.395,809.105c0-24.853,20.147-45,45-45
			s45,20.147,45,45"/>
		<path fill="none" stroke="#E30613" stroke-width="0.1" stroke-miterlimit="10" d="M1815.395,809.105c0-24.853,20.147-45,45-45
			s45,20.147,45,45"/>
		
			<line fill="none" stroke="#E30613" stroke-width="0.1" stroke-miterlimit="10" x1="1653.395" y1="809.105" x2="1905.395" y2="809.105"/>
		
			<line fill="none" stroke="#E30613" stroke-width="0.1" stroke-miterlimit="10" x1="1653.395" y1="773.105" x2="1905.395" y2="773.105"/>
		<path fill="none" stroke="#E30613" stroke-width="0.1" stroke-miterlimit="10" d="M1653.395,809.105c0-69.588,56.412-126,126-126
			s126,56.412,126,126"/>
	</g>
	<g>
		
			<line fill="none" stroke="#E30613" stroke-width="0.1" stroke-miterlimit="10" x1="907.25" y1="431.105" x2="1159.25" y2="431.105"/>
		
			<line fill="none" stroke="#E30613" stroke-width="0.1" stroke-miterlimit="10" x1="907.25" y1="413.105" x2="1159.25" y2="413.105"/>
		
			<line fill="none" stroke="#E30613" stroke-width="0.1" stroke-miterlimit="10" x1="907.25" y1="449.105" x2="1159.25" y2="449.105"/>
		
			<line fill="none" stroke="#E30613" stroke-width="0.1" stroke-miterlimit="10" x1="1033.25" y1="53.105" x2="1033.25" y2="809.105"/>
		
			<line fill="none" stroke="#E30613" stroke-width="0.1" stroke-miterlimit="10" x1="1060.25" y1="53.105" x2="1060.25" y2="809.105"/>
		
			<line fill="none" stroke="#E30613" stroke-width="0.1" stroke-miterlimit="10" x1="1132.25" y1="53.105" x2="1132.25" y2="809.105"/>
		
			<line fill="none" stroke="#E30613" stroke-width="0.1" stroke-miterlimit="10" x1="1159.25" y1="53.105" x2="1159.25" y2="809.105"/>
		
			<line fill="none" stroke="#E30613" stroke-width="0.1" stroke-miterlimit="10" x1="934.25" y1="53.105" x2="934.25" y2="809.105"/>
		
			<line fill="none" stroke="#E30613" stroke-width="0.1" stroke-miterlimit="10" x1="907.25" y1="53.105" x2="907.25" y2="809.105"/>
		
			<line fill="none" stroke="#E30613" stroke-width="0.1" stroke-miterlimit="10" x1="1006.25" y1="53.105" x2="1006.25" y2="809.105"/>
		<circle fill="none" stroke="#E30613" stroke-width="0.1" stroke-miterlimit="10" cx="1033.25" cy="431.105" r="126"/>
		<circle fill="none" stroke="#E30613" stroke-width="0.1" stroke-miterlimit="10" cx="1033.25" cy="431.105" r="99"/>
		<circle fill="none" stroke="#E30613" stroke-width="0.1" stroke-miterlimit="10" cx="1033.25" cy="431.105" r="27"/>
		<circle fill="none" stroke="#E30613" stroke-width="0.1" stroke-miterlimit="10" cx="1132.25" cy="431.105" r="27"/>
		<circle fill="none" stroke="#E30613" stroke-width="0.1" stroke-miterlimit="10" cx="934.25" cy="431.105" r="27"/>
		
			<line fill="none" stroke="#E30613" stroke-width="0.1" stroke-miterlimit="10" x1="907.25" y1="305.105" x2="1159.25" y2="305.105"/>
		
			<line fill="none" stroke="#E30613" stroke-width="0.1" stroke-miterlimit="10" x1="907.25" y1="332.105" x2="1159.25" y2="332.105"/>
		
			<line fill="none" stroke="#E30613" stroke-width="0.1" stroke-miterlimit="10" x1="907.25" y1="278.105" x2="1159.25" y2="278.105"/>
		<circle fill="none" stroke="#E30613" stroke-width="0.1" stroke-miterlimit="10" cx="1033.25" cy="305.105" r="126"/>
		<circle fill="none" stroke="#E30613" stroke-width="0.1" stroke-miterlimit="10" cx="1033.25" cy="305.105" r="99"/>
		<circle fill="none" stroke="#E30613" stroke-width="0.1" stroke-miterlimit="10" cx="934.25" cy="305.105" r="27"/>
		<circle fill="none" stroke="#E30613" stroke-width="0.1" stroke-miterlimit="10" cx="1033.25" cy="305.105" r="27"/>
		<circle fill="none" stroke="#E30613" stroke-width="0.1" stroke-miterlimit="10" cx="1132.25" cy="305.105" r="27"/>
		
			<line fill="none" stroke="#E30613" stroke-width="0.1" stroke-miterlimit="10" x1="907.25" y1="179.105" x2="1159.25" y2="179.105"/>
		
			<line fill="none" stroke="#E30613" stroke-width="0.1" stroke-miterlimit="10" x1="907.25" y1="206.105" x2="1159.25" y2="206.105"/>
		
			<line fill="none" stroke="#E30613" stroke-width="0.1" stroke-miterlimit="10" x1="907.25" y1="152.105" x2="1159.25" y2="152.105"/>
		<circle fill="none" stroke="#E30613" stroke-width="0.1" stroke-miterlimit="10" cx="1033.25" cy="179.105" r="126"/>
		<circle fill="none" stroke="#E30613" stroke-width="0.1" stroke-miterlimit="10" cx="1033.25" cy="179.105" r="99"/>
		<path fill="none" stroke="#E30613" stroke-width="0.1" stroke-miterlimit="10" d="M1132.25,53.105c0,54.676-44.324,99-99,99
			c-54.676,0-99-44.324-99-99"/>
		<circle fill="none" stroke="#E30613" stroke-width="0.1" stroke-miterlimit="10" cx="934.25" cy="179.105" r="27"/>
		<circle fill="none" stroke="#E30613" stroke-width="0.1" stroke-miterlimit="10" cx="1033.25" cy="179.105" r="27"/>
		<circle fill="none" stroke="#E30613" stroke-width="0.1" stroke-miterlimit="10" cx="1132.25" cy="179.105" r="27"/>
		<path fill="none" stroke="#E30613" stroke-width="0.1" stroke-miterlimit="10" d="M961.25,53.105c0,14.912-12.088,27-27,27
			s-27-12.088-27-27"/>
		<path fill="none" stroke="#E30613" stroke-width="0.1" stroke-miterlimit="10" d="M1060.25,53.105c0,14.912-12.088,27-27,27
			c-14.912,0-27-12.088-27-27"/>
		<path fill="none" stroke="#E30613" stroke-width="0.1" stroke-miterlimit="10" d="M1159.25,53.105c0,14.912-12.088,27-27,27
			c-14.912,0-27-12.088-27-27"/>
		
			<line fill="none" stroke="#E30613" stroke-width="0.1" stroke-miterlimit="10" x1="907.25" y1="53.105" x2="1159.25" y2="53.105"/>
		
			<line fill="none" stroke="#E30613" stroke-width="0.1" stroke-miterlimit="10" x1="907.25" y1="80.105" x2="1159.25" y2="80.105"/>
		<path fill="none" stroke="#E30613" stroke-width="0.1" stroke-miterlimit="10" d="M1159.25,53.105c0,69.588-56.412,126-126,126
			s-126-56.412-126-126"/>
		
			<line fill="none" stroke="#E30613" stroke-width="0.1" stroke-miterlimit="10" x1="907.25" y1="557.105" x2="1159.25" y2="557.105"/>
		
			<line fill="none" stroke="#E30613" stroke-width="0.1" stroke-miterlimit="10" x1="907.25" y1="530.105" x2="1159.25" y2="530.105"/>
		
			<line fill="none" stroke="#E30613" stroke-width="0.1" stroke-miterlimit="10" x1="907.25" y1="584.105" x2="1159.25" y2="584.105"/>
		<circle fill="none" stroke="#E30613" stroke-width="0.1" stroke-miterlimit="10" cx="1033.25" cy="557.105" r="126"/>
		<circle fill="none" stroke="#E30613" stroke-width="0.1" stroke-miterlimit="10" cx="1033.25" cy="557.105" r="99"/>
		<circle fill="none" stroke="#E30613" stroke-width="0.1" stroke-miterlimit="10" cx="934.25" cy="557.105" r="27"/>
		<circle fill="none" stroke="#E30613" stroke-width="0.1" stroke-miterlimit="10" cx="1033.25" cy="557.105" r="27"/>
		<circle fill="none" stroke="#E30613" stroke-width="0.1" stroke-miterlimit="10" cx="1132.25" cy="557.105" r="27"/>
		
			<line fill="none" stroke="#E30613" stroke-width="0.1" stroke-miterlimit="10" x1="907.25" y1="683.105" x2="1159.25" y2="683.105"/>
		
			<line fill="none" stroke="#E30613" stroke-width="0.1" stroke-miterlimit="10" x1="907.25" y1="656.105" x2="1159.25" y2="656.105"/>
		
			<line fill="none" stroke="#E30613" stroke-width="0.1" stroke-miterlimit="10" x1="907.25" y1="710.105" x2="1159.25" y2="710.105"/>
		<circle fill="none" stroke="#E30613" stroke-width="0.1" stroke-miterlimit="10" cx="1033.25" cy="683.105" r="126"/>
		<circle fill="none" stroke="#E30613" stroke-width="0.1" stroke-miterlimit="10" cx="1033.25" cy="683.105" r="99"/>
		<circle fill="none" stroke="#E30613" stroke-width="0.1" stroke-miterlimit="10" cx="934.25" cy="683.105" r="27"/>
		<circle fill="none" stroke="#E30613" stroke-width="0.1" stroke-miterlimit="10" cx="1033.25" cy="683.105" r="27"/>
		<circle fill="none" stroke="#E30613" stroke-width="0.1" stroke-miterlimit="10" cx="1132.25" cy="683.105" r="27"/>
		
			<line fill="none" stroke="#E30613" stroke-width="0.1" stroke-miterlimit="10" x1="907.25" y1="809.105" x2="1159.25" y2="809.105"/>
		
			<line fill="none" stroke="#E30613" stroke-width="0.1" stroke-miterlimit="10" x1="907.25" y1="791.105" x2="1159.25" y2="791.105"/>
		<path fill="none" stroke="#E30613" stroke-width="0.1" stroke-miterlimit="10" d="M907.25,809.105c0-69.588,56.412-126,126-126
			s126,56.412,126,126"/>
		<path fill="none" stroke="#E30613" stroke-width="0.1" stroke-miterlimit="10" d="M934.25,809.105c0-54.676,44.324-99,99-99
			c54.676,0,99,44.324,99,99"/>
		<path fill="none" stroke="#E30613" stroke-width="0.1" stroke-miterlimit="10" d="M1105.25,809.105c0-14.912,12.088-27,27-27
			c14.912,0,27,12.088,27,27"/>
		<path fill="none" stroke="#E30613" stroke-width="0.1" stroke-miterlimit="10" d="M1006.25,809.105c0-14.912,12.088-27,27-27
			c14.912,0,27,12.088,27,27"/>
		<path fill="none" stroke="#E30613" stroke-width="0.1" stroke-miterlimit="10" d="M907.25,809.105c0-14.912,12.088-27,27-27
			s27,12.088,27,27"/>
	</g>
</g>
<g id="ovaal">
	<g id="groot_beneden">
		<path fill="#F7C15C" d="M297,180c-69.588,0-126,56.412-126,126v378c0,69.588,56.412,126,126,126s126-56.412,126-126V306l0,0
			C423,236.412,366.588,180,297,180z M414,684c0,64.617-52.383,117-117,117s-117-52.383-117-117V306c0-64.617,52.383-117,117-117
			c64.617,0,117,52.383,117,117V684z"/>
		<path fill="#F7C15C" d="M1779.395,179.105c-69.588,0-126,56.412-126,126c15,0,30,0,45,0c0-44.735,36.265-81,81-81s81,36.265,81,81
			v378c0,44.735-36.265,81-81,81s-81-36.265-81-81v-378h-45v378c0,69.588,56.412,126,126,126s126-56.412,126-126v-378
			C1905.395,235.518,1848.983,179.105,1779.395,179.105z"/>
		<path fill="#F7C15C" d="M1033.25,179.105c-69.588,0-126,56.412-126,126v378c0,69.588,56.412,126,126,126
			c69.588,0,126-56.412,126-126v-378C1159.25,235.518,1102.838,179.105,1033.25,179.105z M1033.25,782.105
			c-54.676,0-99-44.324-99-99v-378c0-54.676,44.324-99,99-99c54.676,0,99,44.324,99,99v378
			C1132.25,737.781,1087.927,782.105,1033.25,782.105z"/>
	</g>
	<g id="groot_boven_1_">
		<path fill="#F7C15C" d="M297,54c-69.588,0-126,56.412-126,126v378c0,69.588,56.412,126,126,126s126-56.412,126-126V180l0,0
			C423,110.412,366.588,54,297,54z M414,558c0,64.617-52.383,117-117,117s-117-52.383-117-117V180c0-64.617,52.383-117,117-117
			c64.617,0,117,52.383,117,117V558z"/>
		<path fill="#F7C15C" d="M1779.395,53.105c-69.588,0-126,56.412-126,126c15,0,30,0,45,0c0-44.735,36.265-81,81-81s81,36.265,81,81
			v378c0,44.735-36.265,81-81,81s-81-36.265-81-81v-378h-45v378c0,69.588,56.412,126,126,126s126-56.412,126-126v-378
			C1905.395,109.518,1848.983,53.105,1779.395,53.105z"/>
		<path fill="#F7C15C" d="M1033.25,53.105c-69.588,0-126,56.412-126,126v378c0,69.588,56.412,126,126,126
			c69.588,0,126-56.412,126-126v-378C1159.25,109.518,1102.838,53.105,1033.25,53.105z M1033.25,656.106c-54.676,0-99-44.324-99-99
			v-378c0-54.676,44.324-99,99-99c54.676,0,99,44.324,99,99v378C1132.25,611.782,1087.927,656.106,1033.25,656.106z"/>
	</g>
	<g id="middel_3">
		<path fill="#F7C15C" d="M297,306c-69.588,0-126,56.412-126,126h9c0-64.617,52.383-117,117-117c64.617,0,117,52.383,117,117v252
			c0,64.617-52.383,117-117,117s-117-52.383-117-117V432h-9v252c0,69.588,56.412,126,126,126s126-56.412,126-126V432
			C423,362.412,366.588,306,297,306z"/>
		<path fill="#F7C15C" d="M1779.395,305.105c-69.588,0-126,56.412-126,126c15,0,30,0,45,0c0-44.735,36.265-81,81-81s81,36.265,81,81
			v252c0,44.735-36.265,81-81,81s-81-36.265-81-81v-252h-45v252c0,69.588,56.412,126,126,126s126-56.412,126-126v-252
			C1905.395,361.518,1848.983,305.105,1779.395,305.105z"/>
		<path fill="#F7C15C" d="M1159.25,431.105c0-69.588-56.412-126-126-126s-126,56.412-126,126v252l0,0c0,69.588,56.412,126,126,126
			c69.588,0,126-56.412,126-126l-27,0c0,54.676-44.324,99-99,99c-54.676,0-99-44.324-99-99v-252c0-54.676,44.324-99,99-99
			c54.676,0,99,44.324,99,99v252h27V431.105z"/>
	</g>
	<g id="middel_2">
		<path fill="#F7C15C" d="M297,180c-69.588,0-126,56.412-126,126h9c0-64.617,52.383-117,117-117c64.617,0,117,52.383,117,117v252
			c0,64.617-52.383,117-117,117s-117-52.383-117-117V306h-9v252c0,69.588,56.412,126,126,126s126-56.412,126-126V306
			C423,236.412,366.588,180,297,180z"/>
		<path fill="#F7C15C" d="M1779.395,179.105c-69.588,0-126,56.412-126,126c15,0,30,0,45,0c0-44.735,36.265-81,81-81s81,36.265,81,81
			v252c0,44.735-36.265,81-81,81s-81-36.265-81-81v-252h-45v252c0,69.588,56.412,126,126,126s126-56.412,126-126v-252
			C1905.395,235.518,1848.983,179.105,1779.395,179.105z"/>
		<path fill="#F7C15C" d="M1159.25,305.105c0-69.588-56.412-126-126-126s-126,56.412-126,126v252l0,0c0,69.588,56.412,126,126,126
			c69.588,0,126-56.412,126-126l-27,0c0,54.676-44.324,99-99,99c-54.676,0-99-44.324-99-99v-252c0-54.676,44.324-99,99-99
			c54.676,0,99,44.324,99,99v252h27V305.105z"/>
	</g>
	<g id="middel_1">
		<path fill="#F7C15C" d="M297,54c-69.588,0-126,56.412-126,126h9c0-64.617,52.383-117,117-117c64.617,0,117,52.383,117,117v252
			c0,64.617-52.383,117-117,117s-117-52.383-117-117V180h-9v252c0,69.588,56.412,126,126,126s126-56.412,126-126V180
			C423,110.412,366.588,54,297,54z"/>
		<path fill="#F7C15C" d="M1779.395,53.105c-69.588,0-126,56.412-126,126c15,0,30,0,45,0c0-44.735,36.265-81,81-81s81,36.265,81,81
			v252c0,44.735-36.265,81-81,81s-81-36.265-81-81v-252h-45v252c0,69.588,56.412,126,126,126s126-56.412,126-126v-252
			C1905.395,109.518,1848.983,53.105,1779.395,53.105z"/>
		<path fill="#F7C15C" d="M1159.25,179.105c0-69.588-56.412-126-126-126s-126,56.412-126,126v252l0,0c0,69.588,56.412,126,126,126
			c69.588,0,126-56.412,126-126l-27,0c0,54.676-44.324,99-99,99c-54.676,0-99-44.324-99-99v-252c0-54.676,44.324-99,99-99
			c54.676,0,99,44.324,99,99v252h27V179.105z"/>
	</g>
	<g id="klein_4">
		<path fill="#F7C15C" d="M297,432c-69.588,0-126,56.412-126,126v126c0,69.588,56.412,126,126,126s126-56.412,126-126V558
			C423,488.412,366.588,432,297,432z M297,801c-64.617,0-117-52.383-117-117V558c0-64.617,52.383-117,117-117
			c64.617,0,117,52.383,117,117v126C414,748.617,361.617,801,297,801z"/>
		<path fill="#F7C15C" d="M1779.395,431.105c-69.588,0-126,56.412-126,126c15,0,30,0,45,0c0-44.735,36.265-81,81-81s81,36.265,81,81
			v126c0,44.735-36.265,81-81,81s-81-36.265-81-81v-126h-45v126c0,69.588,56.412,126,126,126s126-56.412,126-126v-126
			C1905.395,487.518,1848.983,431.105,1779.395,431.105z"/>
		<g>
			<path fill="#F7C15C" d="M1159.25,557.105c0-69.588-56.412-126-126-126c-69.588,0-126,56.412-126,126v126h27v-126
				c0-54.676,44.324-99,99-99c54.676,0,99,44.324,99,99v126h27V557.105L1159.25,557.105z"/>
			<path fill="#F7C15C" d="M1033.25,782.105c-54.676,0-99-44.324-99-99h-27c0,69.588,56.412,126,126,126
				c69.588,0,126-56.412,126-126l-27,0C1132.25,737.781,1087.927,782.105,1033.25,782.105z"/>
		</g>
	</g>
	<g id="klein_3">
		<path fill="#F7C15C" d="M297,306c-69.588,0-126,56.412-126,126v126c0,69.588,56.412,126,126,126s126-56.412,126-126V432
			C423,362.412,366.588,306,297,306z M297,675c-64.617,0-117-52.383-117-117V432c0-64.617,52.383-117,117-117
			c64.617,0,117,52.383,117,117v126C414,622.617,361.617,675,297,675z"/>
		<path fill="#F7C15C" d="M1779.395,305.105c-69.588,0-126,56.412-126,126c15,0,30,0,45,0c0-44.735,36.265-81,81-81s81,36.265,81,81
			v126c0,44.735-36.265,81-81,81s-81-36.265-81-81v-126h-45v126c0,69.588,56.412,126,126,126s126-56.412,126-126v-126
			C1905.395,361.518,1848.983,305.105,1779.395,305.105z"/>
		<g>
			<path fill="#F7C15C" d="M1159.25,431.105c0-69.588-56.412-126-126-126c-69.588,0-126,56.412-126,126v126h27v-126
				c0-54.676,44.324-99,99-99c54.676,0,99,44.324,99,99v126h27V431.105L1159.25,431.105z"/>
			<path fill="#F7C15C" d="M1033.25,656.105c-54.676,0-99-44.324-99-99h-27c0,69.588,56.412,126,126,126
				c69.588,0,126-56.412,126-126l-27,0C1132.25,611.781,1087.927,656.105,1033.25,656.105z"/>
		</g>
	</g>
	<g id="klein_2">
		<path fill="#F7C15C" d="M297,180c-69.588,0-126,56.412-126,126v126c0,69.588,56.412,126,126,126s126-56.412,126-126V306
			C423,236.412,366.588,180,297,180z M297,549c-64.617,0-117-52.383-117-117V306c0-64.617,52.383-117,117-117
			c64.617,0,117,52.383,117,117v126C414,496.617,361.617,549,297,549z"/>
		<path fill="#F7C15C" d="M1779.395,179.105c-69.588,0-126,56.412-126,126c15,0,30,0,45,0c0-44.735,36.265-81,81-81s81,36.265,81,81
			v126c0,44.735-36.265,81-81,81s-81-36.265-81-81v-126h-45v126c0,69.588,56.412,126,126,126s126-56.412,126-126v-126
			C1905.395,235.518,1848.983,179.105,1779.395,179.105z"/>
		<g>
			<path fill="#F7C15C" d="M1159.25,305.105c0-69.588-56.412-126-126-126c-69.588,0-126,56.412-126,126v126h27v-126
				c0-54.676,44.324-99,99-99c54.676,0,99,44.324,99,99v126h27V305.105L1159.25,305.105z"/>
			<path fill="#F7C15C" d="M1033.25,530.106c-54.676,0-99-44.324-99-99h-27c0,69.588,56.412,126,126,126
				c69.588,0,126-56.412,126-126l-27,0C1132.25,485.782,1087.927,530.106,1033.25,530.106z"/>
		</g>
	</g>
	<g id="klein_1">
		<path fill="#F7C15C" d="M297,54c-69.588,0-126,56.412-126,126v126c0,69.588,56.412,126,126,126s126-56.412,126-126V180
			C423,110.412,366.588,54,297,54z M297,423c-64.617,0-117-52.383-117-117V180c0-64.617,52.383-117,117-117
			c64.617,0,117,52.383,117,117v126C414,370.617,361.617,423,297,423z"/>
		<path fill="#F7C15C" d="M1779.395,53.105c-69.588,0-126,56.412-126,126c15,0,30,0,45,0c0-44.735,36.265-81,81-81s81,36.265,81,81
			v126c0,44.735-36.265,81-81,81s-81-36.265-81-81v-126h-45v126c0,69.588,56.412,126,126,126s126-56.412,126-126v-126
			C1905.395,109.518,1848.983,53.105,1779.395,53.105z"/>
		<g>
			<path fill="#F7C15C" d="M1159.25,179.105c0-69.588-56.412-126-126-126c-69.588,0-126,56.412-126,126v126h27v-126
				c0-54.676,44.324-99,99-99c54.676,0,99,44.324,99,99v126h27V179.105L1159.25,179.105z"/>
			<path fill="#F7C15C" d="M1033.25,404.105c-54.676,0-99-44.324-99-99h-27c0,69.588,56.412,126,126,126
				c69.588,0,126-56.412,126-126l-27,0C1132.25,359.781,1087.927,404.105,1033.25,404.105z"/>
		</g>
	</g>
</g>
<g id="part_cirkel_groot">
	<g id="rechts_onder_6_2_">
		<path fill="#F7C15C" d="M423,684c0,69.588-56.412,126-126,126V684H423z"/>
		<path fill="#F7C15C" d="M1905.395,683.105c0,69.588-56.412,126-126,126v-126H1905.395z"/>
		<path fill="#F7C15C" d="M1159.25,683.105h-126l0,126C1102.838,809.105,1159.25,752.693,1159.25,683.105z"/>
	</g>
	<g id="rechts_onder_5_2_">
		<path fill="#F7C15C" d="M423,558c0,69.588-56.412,126-126,126V558H423z"/>
		<path fill="#F7C15C" d="M1905.395,557.105c0,69.588-56.412,126-126,126v-126H1905.395z"/>
		<path fill="#F7C15C" d="M1159.25,557.105h-126l0,126C1102.838,683.105,1159.25,626.693,1159.25,557.105z"/>
	</g>
	<g id="rechts_onder_4_2_">
		<path fill="#F7C15C" d="M423,432c0,69.588-56.412,126-126,126V432H423z"/>
		<path fill="#F7C15C" d="M1905.395,431.105c0,69.588-56.412,126-126,126v-126H1905.395z"/>
		<path fill="#F7C15C" d="M1159.25,431.105l-126,0l0,126C1102.838,557.105,1159.25,500.693,1159.25,431.105z"/>
	</g>
	<g id="rechts_onder_3_2_">
		<path fill="#F7C15C" d="M423,306c0,69.588-56.412,126-126,126V306H423z"/>
		<path fill="#F7C15C" d="M1905.395,305.105c0,69.588-56.412,126-126,126v-126H1905.395z"/>
		<path fill="#F7C15C" d="M1159.25,305.105l-126,0v126C1102.838,431.105,1159.25,374.693,1159.25,305.105z"/>
	</g>
	<g id="rechts_onder_2_2_">
		<path fill="#F7C15C" d="M423,180c0,69.588-56.412,126-126,126V180H423z"/>
		<path fill="#F7C15C" d="M1905.395,179.105c0,69.588-56.412,126-126,126v-126H1905.395z"/>
		<path fill="#F7C15C" d="M1159.25,179.105l-126,0l0,126C1102.838,305.105,1159.25,248.693,1159.25,179.105z"/>
	</g>
	<g id="rechts_onder_1_2_">
		<path fill="#F7C15C" d="M423,54c0,69.588-56.412,126-126,126V54H423z"/>
		<path fill="#F7C15C" d="M1905.395,53.105c0,69.588-56.412,126-126,126v-126H1905.395z"/>
		<path fill="#F7C15C" d="M1159.25,53.105l-126,0v126C1102.838,179.105,1159.25,122.693,1159.25,53.105z"/>
	</g>
	<g id="links_onder_6_2_">
		<path fill="#F7C15C" d="M1653.395,683.105c0,69.588,56.412,126,126,126v-126H1653.395z"/>
		<path fill="#F7C15C" d="M171,684c0,69.588,56.412,126,126,126V684H171z"/>
		<path fill="#F7C15C" d="M1033.25,809.105v-126h-126C907.25,752.693,963.663,809.105,1033.25,809.105z"/>
	</g>
	<g id="links_onder_5_2_">
		<path fill="#F7C15C" d="M1653.395,557.105c0,69.588,56.412,126,126,126v-126H1653.395z"/>
		<path fill="#F7C15C" d="M171,558c0,69.588,56.412,126,126,126V558H171z"/>
		<path fill="#F7C15C" d="M1033.25,683.105v-126h-126C907.25,626.693,963.663,683.105,1033.25,683.105z"/>
	</g>
	<g id="links_onder_4_2_">
		<path fill="#F7C15C" d="M1653.395,431.105c0,69.588,56.412,126,126,126v-126H1653.395z"/>
		<path fill="#F7C15C" d="M171,432c0,69.588,56.412,126,126,126V432H171z"/>
		<path fill="#F7C15C" d="M1033.25,557.105v-126l-126,0C907.25,500.693,963.663,557.105,1033.25,557.105z"/>
	</g>
	<g id="links_onder_3_2_">
		<path fill="#F7C15C" d="M1653.395,305.105c0,69.588,56.412,126,126,126v-126H1653.395z"/>
		<path fill="#F7C15C" d="M171,306c0,69.588,56.412,126,126,126V306H171z"/>
		<path fill="#F7C15C" d="M1033.25,431.105v-126l-126,0C907.25,374.693,963.663,431.105,1033.25,431.105z"/>
	</g>
	<g id="links_onder_2_2_">
		<path fill="#F7C15C" d="M1653.395,179.105c0,69.588,56.412,126,126,126v-126H1653.395z"/>
		<path fill="#F7C15C" d="M171,180c0,69.588,56.412,126,126,126V180H171z"/>
		<path fill="#F7C15C" d="M1033.25,305.105v-126h-126C907.25,248.693,963.663,305.105,1033.25,305.105z"/>
	</g>
	<g id="links_onder_1_2_">
		<path fill="#F7C15C" d="M1653.395,53.105c0,69.588,56.412,126,126,126v-126H1653.395z"/>
		<path fill="#F7C15C" d="M171,54c0,69.588,56.412,126,126,126V54H171z"/>
		<path fill="#F7C15C" d="M1033.25,179.105v-126h-126C907.25,122.693,963.663,179.105,1033.25,179.105z"/>
	</g>
	<g id="rechts_boven_6_2_">
		<path fill="#F7C15C" d="M423,810c0-69.588-56.412-126-126-126v126H423z"/>
		<path fill="#F7C15C" d="M1905.395,809.105c0-69.588-56.412-126-126-126v126H1905.395z"/>
		<path fill="#F7C15C" d="M1033.25,683.105l0,126h126C1159.25,739.518,1102.838,683.105,1033.25,683.105z"/>
	</g>
	<g id="rechts_boven_5_2_">
		<path fill="#F7C15C" d="M423,684c0-69.588-56.412-126-126-126v126H423z"/>
		<path fill="#F7C15C" d="M1905.395,683.105c0-69.588-56.412-126-126-126v126H1905.395z"/>
		<path fill="#F7C15C" d="M1033.25,557.105l0,126l126,0C1159.25,613.518,1102.838,557.105,1033.25,557.105z"/>
	</g>
	<g id="rechts_boven_4_2_">
		<path fill="#F7C15C" d="M423,558c0-69.588-56.412-126-126-126v126H423z"/>
		<path fill="#F7C15C" d="M1905.395,557.105c0-69.588-56.412-126-126-126v126H1905.395z"/>
		<path fill="#F7C15C" d="M1033.25,431.105l0,126h126C1159.25,487.518,1102.838,431.105,1033.25,431.105z"/>
	</g>
	<g id="rechts_boven_3_2_">
		<path fill="#F7C15C" d="M423,432c0-69.588-56.412-126-126-126v126H423z"/>
		<path fill="#F7C15C" d="M1905.395,431.105c0-69.588-56.412-126-126-126v126H1905.395z"/>
		<path fill="#F7C15C" d="M1033.25,305.105l0,126l126,0C1159.25,361.518,1102.838,305.105,1033.25,305.105z"/>
	</g>
	<g id="rechts_boven_2_2_">
		<path fill="#F7C15C" d="M423,306c0-69.588-56.412-126-126-126v126H423z"/>
		<path fill="#F7C15C" d="M1905.395,305.105c0-69.588-56.412-126-126-126v126H1905.395z"/>
		<path fill="#F7C15C" d="M1033.25,179.105l0,126l126,0C1159.25,235.518,1102.838,179.105,1033.25,179.105z"/>
	</g>
	<g id="rechts_boven_1_2_">
		<path fill="#F7C15C" d="M423,180c0-69.588-56.412-126-126-126v126H423z"/>
		<path fill="#F7C15C" d="M1905.395,179.105c0-69.588-56.412-126-126-126v126H1905.395z"/>
		<path fill="#F7C15C" d="M1033.25,53.105l0,126l126,0C1159.25,109.518,1102.838,53.105,1033.25,53.105z"/>
	</g>
	<g id="links_boven_6_2_">
		<path fill="#F7C15C" d="M1653.395,809.105c0-69.588,56.412-126,126-126v126H1653.395z"/>
		<path fill="#F7C15C" d="M171,810c0-69.588,56.412-126,126-126v126H171z"/>
		<path fill="#F7C15C" d="M907.25,809.105h126v-126C963.662,683.105,907.25,739.518,907.25,809.105z"/>
	</g>
	<g id="links_boven_5_2_">
		<path fill="#F7C15C" d="M1653.395,683.105c0-69.588,56.412-126,126-126v126H1653.395z"/>
		<path fill="#F7C15C" d="M171,684c0-69.588,56.412-126,126-126v126H171z"/>
		<path fill="#F7C15C" d="M907.25,683.105h126v-126C963.662,557.105,907.25,613.518,907.25,683.105z"/>
	</g>
	<g id="links_boven_4_2_">
		<path fill="#F7C15C" d="M1653.395,557.105c0-69.588,56.412-126,126-126v126H1653.395z"/>
		<path fill="#F7C15C" d="M171,558c0-69.588,56.412-126,126-126v126H171z"/>
		<path fill="#F7C15C" d="M907.25,557.105h126v-126C963.662,431.105,907.25,487.518,907.25,557.105z"/>
	</g>
	<g id="links_boven_3_2_">
		<path fill="#F7C15C" d="M1653.395,431.105c0-69.588,56.412-126,126-126v126H1653.395z"/>
		<path fill="#F7C15C" d="M171,432c0-69.588,56.412-126,126-126v126H171z"/>
		<path fill="#F7C15C" d="M907.25,431.105h126v-126C963.662,305.105,907.25,361.518,907.25,431.105z"/>
	</g>
	<g id="links_boven_2_2_">
		<path fill="#F7C15C" d="M1653.395,305.105c0-69.588,56.412-126,126-126v126H1653.395z"/>
		<path fill="#F7C15C" d="M171,306c0-69.588,56.412-126,126-126v126H171z"/>
		<path fill="#F7C15C" d="M907.25,305.105h126v-126C963.662,179.105,907.25,235.518,907.25,305.105z"/>
	</g>
	<g id="links_boven_1_2_">
		<path fill="#F7C15C" d="M1653.395,179.105c0-69.588,56.412-126,126-126v126H1653.395z"/>
		<path fill="#F7C15C" d="M171,180c0-69.588,56.412-126,126-126v126H171z"/>
		<path fill="#F7C15C" d="M907.25,179.334h126v-126C963.662,53.334,907.25,109.746,907.25,179.334z"/>
	</g>
</g>
<g id="part_cirkel_klein">
	<g id="rechts_onder_6_1_">
		<path fill="#13582A" d="M297,801V684h117C414,748.617,361.617,801,297,801z"/>
		<path fill="#13582A" d="M1860.395,683.105c0,44.735-36.265,81-81,81v-81H1860.395z"/>
		<path fill="#13582A" d="M1033.25,683.105v99c54.676,0,99-44.324,99-99C1099.25,683.105,1066.25,683.105,1033.25,683.105z"/>
	</g>
	<g id="rechts_onder_5_1_">
		<path fill="#13582A" d="M297,675V558h117C414,622.617,361.617,675,297,675z"/>
		<path fill="#13582A" d="M1860.395,557.105c0,44.735-36.265,81-81,81v-81H1860.395z"/>
		<path fill="#13582A" d="M1033.25,557.105v99c54.676,0,99-44.324,99-99C1099.25,557.105,1066.25,557.105,1033.25,557.105z"/>
	</g>
	<g id="rechts_onder_4_1_">
		<path fill="#13582A" d="M297,549V432h117C414,496.617,361.617,549,297,549z"/>
		<path fill="#13582A" d="M1860.395,431.105c0,44.735-36.265,81-81,81v-81H1860.395z"/>
		<path fill="#13582A" d="M1033.25,431.105v99c54.676,0,99-44.324,99-99C1099.25,431.105,1066.25,431.105,1033.25,431.105z"/>
	</g>
	<g id="rechts_onder_3_1_">
		<path fill="#13582A" d="M297,423V306h117C414,370.617,361.617,423,297,423z"/>
		<path fill="#13582A" d="M1860.395,305.105c0,44.735-36.265,81-81,81v-81H1860.395z"/>
		<path fill="#13582A" d="M1033.25,305.105v99c54.676,0,99-44.324,99-99C1099.25,305.105,1066.25,305.105,1033.25,305.105z"/>
	</g>
	<g id="rechts_onder_2_1_">
		<path fill="#13582A" d="M297,297V180h117C414,244.617,361.617,297,297,297z"/>
		<path fill="#13582A" d="M1860.395,179.105c0,44.735-36.265,81-81,81v-81H1860.395z"/>
		<path fill="#13582A" d="M1033.25,179.105v99c54.676,0,99-44.324,99-99C1099.25,179.105,1066.25,179.105,1033.25,179.105z"/>
	</g>
	<g id="rechts_onder_1_1_">
		<path fill="#13582A" d="M297,171V54h117C414,118.617,361.617,171,297,171z"/>
		<path fill="#13582A" d="M1860.395,53.105c0,44.735-36.265,81-81,81v-81H1860.395z"/>
		<path fill="#13582A" d="M1033.25,53.105v99c54.676,0,99-44.324,99-99C1099.25,53.105,1066.25,53.105,1033.25,53.105z"/>
	</g>
	<g id="links_onder_6_1_">
		<path fill="#13582A" d="M297,801V684H180C180,748.617,232.383,801,297,801z"/>
		<path fill="#13582A" d="M1698.395,683.105c0,44.735,36.265,81,81,81v-81H1698.395z"/>
		<path fill="#13582A" d="M1033.25,683.105v99c-54.676,0-99-44.324-99-99C967.25,683.105,1000.25,683.105,1033.25,683.105z"/>
	</g>
	<g id="links_onder_5_1_">
		<path fill="#13582A" d="M297,675V558H180C180,622.617,232.383,675,297,675z"/>
		<path fill="#13582A" d="M1698.395,557.105c0,44.735,36.265,81,81,81v-81H1698.395z"/>
		<path fill="#13582A" d="M1033.25,557.105v99c-54.676,0-99-44.324-99-99C967.25,557.105,1000.25,557.105,1033.25,557.105z"/>
	</g>
	<g id="links_onder_4_1_">
		<path fill="#13582A" d="M297,549V432H180C180,496.617,232.383,549,297,549z"/>
		<path fill="#13582A" d="M1698.395,431.105c0,44.735,36.265,81,81,81v-81H1698.395z"/>
		<path fill="#13582A" d="M1033.25,431.105v99c-54.676,0-99-44.324-99-99C967.25,431.105,1000.25,431.105,1033.25,431.105z"/>
	</g>
	<g id="links_onder_3_1_">
		<path fill="#13582A" d="M297,423V306H180C180,370.617,232.383,423,297,423z"/>
		<path fill="#13582A" d="M1698.395,305.105c0,44.735,36.265,81,81,81v-81H1698.395z"/>
		<path fill="#13582A" d="M1033.25,305.105v99c-54.676,0-99-44.324-99-99C967.25,305.105,1000.25,305.105,1033.25,305.105z"/>
	</g>
	<g id="links_onder_2_1_">
		<path fill="#13582A" d="M297,297V180H180C180,244.617,232.383,297,297,297z"/>
		<path fill="#13582A" d="M1698.395,179.105c0,44.735,36.265,81,81,81v-81H1698.395z"/>
		<path fill="#13582A" d="M1033.25,179.105v99c-54.676,0-99-44.324-99-99C967.25,179.105,1000.25,179.105,1033.25,179.105z"/>
	</g>
	<g id="links_onder_1_1_">
		<path fill="#13582A" d="M297,171V54H180C180,118.617,232.383,171,297,171z"/>
		<path fill="#13582A" d="M1698.395,53.105c0,44.735,36.265,81,81,81v-81H1698.395z"/>
		<path fill="#13582A" d="M1033.25,53.105v99c-54.676,0-99-44.324-99-99C967.25,53.105,1000.25,53.105,1033.25,53.105z"/>
	</g>
	<g id="rechts_boven_6_1_">
		<path fill="#13582A" d="M297,693v117h117C414,745.383,361.617,693,297,693z"/>
		<path fill="#13582A" d="M1860.395,809.105c0-44.735-36.265-81-81-81v81H1860.395z"/>
		<path fill="#13582A" d="M1033.25,809.105h99c0-54.676-44.324-99-99-99C1033.25,743.105,1033.25,776.105,1033.25,809.105z"/>
	</g>
	<g id="rechts_boven_5_1_">
		<path fill="#13582A" d="M297,567v117h117C414,619.383,361.617,567,297,567z"/>
		<path fill="#13582A" d="M1860.395,683.105c0-44.735-36.265-81-81-81v81H1860.395z"/>
		<path fill="#13582A" d="M1033.25,683.105h99c0-54.676-44.324-99-99-99C1033.25,617.105,1033.25,650.105,1033.25,683.105z"/>
	</g>
	<g id="rechts_boven_4_1_">
		<path fill="#13582A" d="M297,441v117h117C414,493.383,361.617,441,297,441z"/>
		<path fill="#13582A" d="M1860.395,557.105c0-44.735-36.265-81-81-81v81H1860.395z"/>
		<path fill="#13582A" d="M1033.25,557.105h99c0-54.676-44.324-99-99-99C1033.25,491.105,1033.25,524.105,1033.25,557.105z"/>
	</g>
	<g id="rechts_boven_3_1_">
		<path fill="#13582A" d="M297,315v117h117C414,367.383,361.617,315,297,315z"/>
		<path fill="#13582A" d="M1860.395,431.105c0-44.735-36.265-81-81-81v81H1860.395z"/>
		<path fill="#13582A" d="M1033.25,431.105h99c0-54.676-44.324-99-99-99C1033.25,365.105,1033.25,398.105,1033.25,431.105z"/>
	</g>
	<g id="rechts_boven_2_1_">
		<path fill="#13582A" d="M297,189v117h117C414,241.383,361.617,189,297,189z"/>
		<path fill="#13582A" d="M1860.395,305.105c0-44.735-36.265-81-81-81v81H1860.395z"/>
		<path fill="#13582A" d="M1033.25,305.105h99c0-54.676-44.324-99-99-99C1033.25,239.105,1033.25,272.105,1033.25,305.105z"/>
	</g>
	<g id="rechts_boven_1_1_">
		<path fill="#13582A" d="M297,63v117h117C414,115.383,361.617,63,297,63z"/>
		<path fill="#13582A" d="M1860.395,179.105c0-44.735-36.265-81-81-81v81H1860.395z"/>
		<path fill="#13582A" d="M1033.25,179.105h99c0-54.676-44.324-99-99-99C1033.25,113.105,1033.25,146.105,1033.25,179.105z"/>
	</g>
	<g id="links_boven_6_1_">
		<path fill="#13582A" d="M297,693v117H180C180,745.383,232.383,693,297,693z"/>
		<path fill="#13582A" d="M1698.395,809.105c0-44.735,36.265-81,81-81v81H1698.395z"/>
		<path fill="#13582A" d="M1033.25,809.105l0-99c-54.676,0-99,44.324-99,99C967.25,809.105,1000.25,809.105,1033.25,809.105z"/>
	</g>
	<g id="links_boven_5_1_">
		<path fill="#13582A" d="M297,567v117H180C180,619.383,232.383,567,297,567z"/>
		<path fill="#13582A" d="M1698.395,683.105c0-44.735,36.265-81,81-81v81H1698.395z"/>
		<path fill="#13582A" d="M1033.25,683.105l0-99c-54.676,0-99,44.324-99,99C967.25,683.105,1000.25,683.105,1033.25,683.105z"/>
	</g>
	<g id="links_boven_4_1_">
		<path fill="#13582A" d="M297,441v117H180C180,493.383,232.383,441,297,441z"/>
		<path fill="#13582A" d="M1698.395,557.105c0-44.735,36.265-81,81-81v81H1698.395z"/>
		<path fill="#13582A" d="M1033.25,557.105l0-99c-54.676,0-99,44.324-99,99C967.25,557.105,1000.25,557.105,1033.25,557.105z"/>
	</g>
	<g id="links_boven_3_1_">
		<path fill="#13582A" d="M297,315v117H180C180,367.383,232.383,315,297,315z"/>
		<path fill="#13582A" d="M1698.395,431.105c0-44.735,36.265-81,81-81v81H1698.395z"/>
		<path fill="#13582A" d="M1033.25,431.105l0-99c-54.676,0-99,44.324-99,99C967.25,431.105,1000.25,431.105,1033.25,431.105z"/>
	</g>
	<g id="links_boven_2_1_">
		<path fill="#13582A" d="M297,189v117H180C180,241.383,232.383,189,297,189z"/>
		<path fill="#13582A" d="M1698.395,305.105c0-44.735,36.265-81,81-81v81H1698.395z"/>
		<path fill="#13582A" d="M1033.25,305.105v-99c-54.676,0-99,44.324-99,99C967.25,305.105,1000.25,305.105,1033.25,305.105z"/>
	</g>
	<g id="links_boven_1_1_">
		<path fill="#13582A" d="M297,63v117H180C180,115.383,232.383,63,297,63z"/>
		<path fill="#13582A" d="M1698.395,179.105c0-44.735,36.265-81,81-81v81H1698.395z"/>
		<path fill="#13582A" d="M1033.25,179.105v-99c-54.676,0-99,44.324-99,99C967.25,179.105,1000.25,179.105,1033.25,179.105z"/>
	</g>
</g>
<g id="horizontale_lijnen">
	<g id="_x31_2">
		<rect x="1653.436" y="764.105" fill="#F7C15C" width="252" height="45"/>
		<rect x="907.25" y="782.105" fill="#F7C15C" width="252" height="27"/>
		<rect x="171" y="801" fill="#F7C15C" width="252" height="9"/>
	</g>
	<g id="_x31_1">
		<rect x="1653.436" y="683.105" fill="#F7C15C" width="252" height="45"/>
		<rect x="907.25" y="683.105" fill="#F7C15C" width="252" height="27"/>
		<rect x="171" y="684" fill="#F7C15C" width="252" height="9"/>
	</g>
	<g id="_x31_0">
		<rect x="1653.436" y="638.105" fill="#F7C15C" width="252" height="45"/>
		<rect x="907.25" y="656.105" fill="#F7C15C" width="252" height="27"/>
		<rect x="171" y="675" fill="#F7C15C" width="252" height="9"/>
	</g>
	<g id="_x39_">
		<rect x="1653.436" y="557.105" fill="#F7C15C" width="252" height="45"/>
		<rect x="907.25" y="557.105" fill="#F7C15C" width="252" height="27"/>
		<rect x="171" y="558" fill="#F7C15C" width="252" height="9"/>
	</g>
	<g id="_x38_">
		<rect x="1653.436" y="512.105" fill="#F7C15C" width="252" height="45"/>
		<rect x="171" y="549" fill="#F7C15C" width="252" height="9"/>
		<rect x="907.25" y="530.105" fill="#F7C15C" width="252" height="27"/>
	</g>
	<g id="_x37_">
		<rect x="1653.436" y="431.105" fill="#F7C15C" width="252" height="45"/>
		<rect x="907.25" y="431.105" fill="#F7C15C" width="252" height="27"/>
		<rect x="171" y="432" fill="#F7C15C" width="252" height="9"/>
	</g>
	<g id="_x36_">
		<rect x="1653.436" y="386.105" fill="#F7C15C" width="252" height="45"/>
		<rect x="907.25" y="404.105" fill="#F7C15C" width="252" height="27"/>
		<rect x="171" y="423" fill="#F7C15C" width="252" height="9"/>
	</g>
	<g id="_x35_">
		<rect x="1653.436" y="305.105" fill="#F7C15C" width="252" height="45"/>
		<rect x="907.25" y="305.105" fill="#F7C15C" width="252" height="27"/>
		<rect x="171" y="306" fill="#F7C15C" width="252" height="9"/>
	</g>
	<g id="_x34_">
		<rect x="1653.436" y="260.105" fill="#F7C15C" width="252" height="45"/>
		<rect x="907.25" y="278.105" fill="#F7C15C" width="252" height="27"/>
		<rect x="171" y="297" fill="#F7C15C" width="252" height="9"/>
	</g>
	<g id="_x33_">
		<rect x="1653.436" y="179.105" fill="#F7C15C" width="252" height="45"/>
		<rect x="171" y="180" fill="#F7C15C" width="252" height="9"/>
		<rect x="907.25" y="179.105" fill="#F7C15C" width="252" height="27"/>
	</g>
	<g id="_x32_">
		<rect x="171" y="171" fill="#F7C15C" width="252" height="9"/>
		<rect x="907.25" y="152.105" fill="#F7C15C" width="252" height="27"/>
		<rect x="1653.436" y="134.105" fill="#F7C15C" width="252" height="45"/>
	</g>
	<g id="_x31_">
		<rect x="171" y="54" fill="#F7C15C" width="252" height="9"/>
		<rect x="907.25" y="53.105" fill="#F7C15C" width="252" height="27"/>
		<rect x="1653.436" y="53.105" fill="#F7C15C" width="252" height="45"/>
	</g>
</g>
<g id="part_cirkel_contour">
	<g id="rechts_onder_6">
		<path fill="#8ECDD9" d="M297,810v-9c64.617,0,117-52.383,117-117c3,0,6,0,9,0C423,753.588,366.588,810,297,810z"/>
		<path fill="#8ECDD9" d="M1860.395,683.105c14.711,0,30.331,0,45,0c0,69.588-56.412,126-126,126c0-15,0-30,0-45
			C1824.13,764.105,1860.395,727.841,1860.395,683.105z"/>
		<path fill="#8ECDD9" d="M1033.25,809.105v-27c54.676,0,99-44.324,99-99c8.671,0,18.261,0,27,0
			C1159.25,752.693,1102.838,809.105,1033.25,809.105z"/>
	</g>
	<g id="rechts_onder_5">
		<path fill="#8ECDD9" d="M297,684v-9c64.617,0,117-52.383,117-117c3,0,6,0,9,0C423,627.588,366.588,684,297,684z"/>
		<path fill="#8ECDD9" d="M1860.395,557.105c14.711,0,30.331,0,45,0c0,69.588-56.412,126-126,126c0-15,0-30,0-45
			C1824.13,638.105,1860.395,601.841,1860.395,557.105z"/>
		<path fill="#8ECDD9" d="M1033.25,683.105v-27c54.676,0,99-44.324,99-99c8.671,0,18.261,0,27,0
			C1159.25,626.693,1102.838,683.105,1033.25,683.105z"/>
	</g>
	<g id="rechts_onder_4">
		<path fill="#8ECDD9" d="M297,558v-9c64.617,0,117-52.383,117-117c3,0,6,0,9,0C423,501.588,366.588,558,297,558z"/>
		<path fill="#8ECDD9" d="M1860.395,431.105c14.711,0,30.331,0,45,0c0,69.588-56.412,126-126,126c0-15,0-30,0-45
			C1824.13,512.105,1860.395,475.841,1860.395,431.105z"/>
		<path fill="#8ECDD9" d="M1033.25,557.105v-27c54.676,0,99-44.324,99-99c8.671,0,18.261,0,27,0
			C1159.25,500.693,1102.838,557.105,1033.25,557.105z"/>
	</g>
	<g id="rechts_onder_3">
		<path fill="#8ECDD9" d="M297,432v-9c64.617,0,117-52.383,117-117c3,0,6,0,9,0C423,375.588,366.588,432,297,432z"/>
		<path fill="#8ECDD9" d="M1860.395,305.105c14.711,0,30.331,0,45,0c0,69.588-56.412,126-126,126c0-15,0-30,0-45
			C1824.13,386.105,1860.395,349.841,1860.395,305.105z"/>
		<path fill="#8ECDD9" d="M1033.25,431.105v-27c54.676,0,99-44.324,99-99c8.671,0,18.261,0,27,0
			C1159.25,374.693,1102.838,431.105,1033.25,431.105z"/>
	</g>
	<g id="rechts_onder_2">
		<path fill="#8ECDD9" d="M297,306v-9c64.617,0,117-52.383,117-117c3,0,6,0,9,0C423,249.588,366.588,306,297,306z"/>
		<path fill="#8ECDD9" d="M1860.395,179.105c14.711,0,30.331,0,45,0c0,69.588-56.412,126-126,126c0-15,0-30,0-45
			C1824.13,260.105,1860.395,223.841,1860.395,179.105z"/>
		<path fill="#8ECDD9" d="M1033.25,305.105v-27c54.676,0,99-44.324,99-99c8.671,0,18.261,0,27,0
			C1159.25,248.693,1102.838,305.105,1033.25,305.105z"/>
	</g>
	<g id="rechts_onder_1">
		<path fill="#8ECDD9" d="M297,180v-9c64.617,0,117-52.383,117-117c3,0,6,0,9,0C423,123.588,366.588,180,297,180z"/>
		<path fill="#8ECDD9" d="M1860.395,53.105c14.711,0,30.331,0,45,0c0,69.588-56.412,126-126,126c0-15,0-30,0-45
			C1824.13,134.105,1860.395,97.841,1860.395,53.105z"/>
		<path fill="#8ECDD9" d="M1033.25,179.105v-27c54.676,0,99-44.324,99-99c8.671,0,18.261,0,27,0
			C1159.25,122.693,1102.838,179.105,1033.25,179.105z"/>
	</g>
	<g id="links_onder_6">
		<path fill="#8ECDD9" d="M297,810v-9c-64.617,0-117-52.383-117-117c-3,0-6,0-9,0C171,753.588,227.412,810,297,810z"/>
		<path fill="#8ECDD9" d="M1698.395,683.105c-14.711,0-30.331,0-45,0c0,69.588,56.412,126,126,126c0-15,0-30,0-45
			C1734.66,764.105,1698.395,727.841,1698.395,683.105z"/>
		<path fill="#8ECDD9" d="M1033.25,809.105v-27c-54.676,0-99-44.324-99-99c-8.671,0-18.261,0-27,0
			C907.25,752.693,963.662,809.105,1033.25,809.105z"/>
	</g>
	<g id="links_onder_5">
		<path fill="#8ECDD9" d="M297,684v-9c-64.617,0-117-52.383-117-117c-3,0-6,0-9,0C171,627.588,227.412,684,297,684z"/>
		<path fill="#8ECDD9" d="M1698.395,557.105c-14.711,0-30.331,0-45,0c0,69.588,56.412,126,126,126c0-15,0-30,0-45
			C1734.66,638.105,1698.395,601.841,1698.395,557.105z"/>
		<path fill="#8ECDD9" d="M1033.25,683.105v-27c-54.676,0-99-44.324-99-99c-8.671,0-18.261,0-27,0
			C907.25,626.693,963.662,683.105,1033.25,683.105z"/>
	</g>
	<g id="links_onder_4">
		<path fill="#8ECDD9" d="M297,558v-9c-64.617,0-117-52.383-117-117c-3,0-6,0-9,0C171,501.588,227.412,558,297,558z"/>
		<path fill="#8ECDD9" d="M1698.395,431.105c-14.711,0-30.331,0-45,0c0,69.588,56.412,126,126,126c0-15,0-30,0-45
			C1734.66,512.105,1698.395,475.841,1698.395,431.105z"/>
		<path fill="#8ECDD9" d="M1033.25,557.105v-27c-54.676,0-99-44.324-99-99c-8.671,0-18.261,0-27,0
			C907.25,500.693,963.662,557.105,1033.25,557.105z"/>
	</g>
	<g id="links_onder_3">
		<path fill="#8ECDD9" d="M297,432v-9c-64.617,0-117-52.383-117-117c-3,0-6,0-9,0C171,375.588,227.412,432,297,432z"/>
		<path fill="#8ECDD9" d="M1698.395,305.105c-14.711,0-30.331,0-45,0c0,69.588,56.412,126,126,126c0-15,0-30,0-45
			C1734.66,386.105,1698.395,349.841,1698.395,305.105z"/>
		<path fill="#8ECDD9" d="M1033.25,431.105v-27c-54.676,0-99-44.324-99-99c-8.671,0-18.261,0-27,0
			C907.25,374.693,963.662,431.105,1033.25,431.105z"/>
	</g>
	<g id="links_onder_2">
		<path fill="#8ECDD9" d="M297,306v-9c-64.617,0-117-52.383-117-117c-3,0-6,0-9,0C171,249.588,227.412,306,297,306z"/>
		<path fill="#8ECDD9" d="M1698.395,179.105c-14.711,0-30.331,0-45,0c0,69.588,56.412,126,126,126c0-15,0-30,0-45
			C1734.66,260.105,1698.395,223.841,1698.395,179.105z"/>
		<path fill="#8ECDD9" d="M1033.25,305.105v-27c-54.676,0-99-44.324-99-99c-8.671,0-18.261,0-27,0
			C907.25,248.693,963.662,305.105,1033.25,305.105z"/>
	</g>
	<g id="links_onder_1">
		<path fill="#8ECDD9" d="M297,180v-9c-64.617,0-117-52.383-117-117c-3,0-6,0-9,0C171,123.588,227.412,180,297,180z"/>
		<path fill="#8ECDD9" d="M1698.395,53.105c-14.711,0-30.331,0-45,0c0,69.588,56.412,126,126,126c0-15,0-30,0-45
			C1734.66,134.105,1698.395,97.841,1698.395,53.105z"/>
		<path fill="#8ECDD9" d="M1033.25,179.105v-27c-54.676,0-99-44.324-99-99c-8.671,0-18.261,0-27,0
			C907.25,122.693,963.662,179.105,1033.25,179.105z"/>
	</g>
	<g id="rechts_boven_6">
		<path fill="#8ECDD9" d="M297,684v9c64.617,0,117,52.383,117,117c3,0,6,0,9,0C423,740.412,366.588,684,297,684z"/>
		<path fill="#8ECDD9" d="M1860.395,809.105c14.711,0,30.331,0,45,0c0-69.588-56.412-126-126-126c0,15,0,30,0,45
			C1824.13,728.105,1860.395,764.37,1860.395,809.105z"/>
		<path fill="#8ECDD9" d="M1033.25,683.105v27c54.676,0,99,44.324,99,99c8.671,0,18.261,0,27,0
			C1159.25,739.518,1102.838,683.105,1033.25,683.105z"/>
	</g>
	<g id="rechts_boven_5">
		<path fill="#8ECDD9" d="M297,558v9c64.617,0,117,52.383,117,117c3,0,6,0,9,0C423,614.412,366.588,558,297,558z"/>
		<path fill="#8ECDD9" d="M1860.395,683.105c14.711,0,30.331,0,45,0c0-69.588-56.412-126-126-126c0,15,0,30,0,45
			C1824.13,602.105,1860.395,638.37,1860.395,683.105z"/>
		<path fill="#8ECDD9" d="M1033.25,557.105v27c54.676,0,99,44.324,99,99c8.671,0,18.261,0,27,0
			C1159.25,613.518,1102.838,557.105,1033.25,557.105z"/>
	</g>
	<g id="rechts_boven_4">
		<path fill="#8ECDD9" d="M297,432v9c64.617,0,117,52.383,117,117c3,0,6,0,9,0C423,488.412,366.588,432,297,432z"/>
		<path fill="#8ECDD9" d="M1860.395,557.105c14.711,0,30.331,0,45,0c0-69.588-56.412-126-126-126c0,15,0,30,0,45
			C1824.13,476.105,1860.395,512.37,1860.395,557.105z"/>
		<path fill="#8ECDD9" d="M1033.25,431.105v27c54.676,0,99,44.324,99,99c8.671,0,18.261,0,27,0
			C1159.25,487.518,1102.838,431.105,1033.25,431.105z"/>
	</g>
	<g id="rechts_boven_3">
		<path fill="#8ECDD9" d="M297,306v9c64.617,0,117,52.383,117,117c3,0,6,0,9,0C423,362.412,366.588,306,297,306z"/>
		<path fill="#8ECDD9" d="M1860.395,431.105c14.711,0,30.331,0,45,0c0-69.588-56.412-126-126-126c0,15,0,30,0,45
			C1824.13,350.105,1860.395,386.37,1860.395,431.105z"/>
		<path fill="#8ECDD9" d="M1033.25,305.105v27c54.676,0,99,44.324,99,99c8.671,0,18.261,0,27,0
			C1159.25,361.518,1102.838,305.105,1033.25,305.105z"/>
	</g>
	<g id="rechts_boven_2">
		<path fill="#8ECDD9" d="M297,180v9c64.617,0,117,52.383,117,117c3,0,6,0,9,0C423,236.412,366.588,180,297,180z"/>
		<path fill="#8ECDD9" d="M1860.395,305.105c14.711,0,30.331,0,45,0c0-69.588-56.412-126-126-126c0,15,0,30,0,45
			C1824.13,224.105,1860.395,260.37,1860.395,305.105z"/>
		<path fill="#8ECDD9" d="M1033.25,179.105v27c54.676,0,99,44.324,99,99c8.671,0,18.261,0,27,0
			C1159.25,235.518,1102.838,179.105,1033.25,179.105z"/>
	</g>
	<g id="rechts_boven_1">
		<path fill="#8ECDD9" d="M297,54v9c64.617,0,117,52.383,117,117c3,0,6,0,9,0C423,110.412,366.588,54,297,54z"/>
		<path fill="#8ECDD9" d="M1860.395,179.105c14.711,0,30.331,0,45,0c0-69.588-56.412-126-126-126c0,15,0,30,0,45
			C1824.13,98.105,1860.395,134.37,1860.395,179.105z"/>
		<path fill="#8ECDD9" d="M1033.25,53.105v27c54.676,0,99,44.324,99,99c8.671,0,18.261,0,27,0
			C1159.25,109.518,1102.838,53.105,1033.25,53.105z"/>
	</g>
	<g id="links_boven_6">
		<path fill="#8ECDD9" d="M297,693v-9c-69.588,0-126,56.412-126,126c3,0,6,0,9,0C180,745.383,232.383,693,297,693z"/>
		<path fill="#8ECDD9" d="M1779.395,728.105c0-15,0-30,0-45c-69.588,0-126,56.412-126,126c14.669,0,30.289,0,45,0
			C1698.395,764.37,1734.66,728.105,1779.395,728.105z"/>
		<path fill="#8ECDD9" d="M1033.25,683.105v27c-54.676,0-99,44.324-99,99c-8.671,0-18.261,0-27,0
			C907.25,739.518,963.662,683.105,1033.25,683.105z"/>
	</g>
	<g id="links_boven_5">
		<path fill="#8ECDD9" d="M297,567v-9c-69.588,0-126,56.412-126,126c3,0,6,0,9,0C180,619.383,232.383,567,297,567z"/>
		<path fill="#8ECDD9" d="M1779.395,602.105c0-15,0-30,0-45c-69.588,0-126,56.412-126,126c14.669,0,30.289,0,45,0
			C1698.395,638.37,1734.66,602.105,1779.395,602.105z"/>
		<path fill="#8ECDD9" d="M1033.25,557.105v27c-54.676,0-99,44.324-99,99c-8.671,0-18.261,0-27,0
			C907.25,613.518,963.662,557.105,1033.25,557.105z"/>
	</g>
	<g id="links_boven_4">
		<path fill="#8ECDD9" d="M297,441v-9c-69.588,0-126,56.412-126,126c3,0,6,0,9,0C180,493.383,232.383,441,297,441z"/>
		<path fill="#8ECDD9" d="M1779.395,476.105c0-15,0-30,0-45c-69.588,0-126,56.412-126,126c14.669,0,30.289,0,45,0
			C1698.395,512.37,1734.66,476.105,1779.395,476.105z"/>
		<path fill="#8ECDD9" d="M1033.25,431.105v27c-54.676,0-99,44.324-99,99c-8.671,0-18.261,0-27,0
			C907.25,487.518,963.662,431.105,1033.25,431.105z"/>
	</g>
	<g id="links_boven_3">
		<path fill="#8ECDD9" d="M297,315v-9c-69.588,0-126,56.412-126,126c3,0,6,0,9,0C180,367.383,232.383,315,297,315z"/>
		<path fill="#8ECDD9" d="M1779.395,350.105c0-15,0-30,0-45c-69.588,0-126,56.412-126,126c14.669,0,30.289,0,45,0
			C1698.395,386.37,1734.66,350.105,1779.395,350.105z"/>
		<path fill="#8ECDD9" d="M1033.25,305.105v27c-54.676,0-99,44.324-99,99c-8.671,0-18.261,0-27,0
			C907.25,361.518,963.662,305.105,1033.25,305.105z"/>
	</g>
	<g id="links_boven_2">
		<path fill="#8ECDD9" d="M297,189v-9c-69.588,0-126,56.412-126,126c3,0,6,0,9,0C180,241.383,232.383,189,297,189z"/>
		<path fill="#8ECDD9" d="M1779.395,224.105c0-15,0-30,0-45c-69.588,0-126,56.412-126,126c14.669,0,30.289,0,45,0
			C1698.395,260.37,1734.66,224.105,1779.395,224.105z"/>
		<path fill="#8ECDD9" d="M1033.25,179.105v27c-54.676,0-99,44.324-99,99c-8.671,0-18.261,0-27,0
			C907.25,235.518,963.662,179.105,1033.25,179.105z"/>
	</g>
	<g id="links_boven_1">
		<path fill="#8ECDD9" d="M297,63v-9c-69.588,0-126,56.412-126,126c3,0,6,0,9,0C180,115.383,232.383,63,297,63z"/>
		<path fill="#8ECDD9" d="M1779.395,98.105c0-15,0-30,0-45c-69.588,0-126,56.412-126,126c14.669,0,30.289,0,45,0
			C1698.395,134.37,1734.66,98.105,1779.395,98.105z"/>
		<path fill="#8ECDD9" d="M1033.25,53.105v27c-54.676,0-99,44.324-99,99c-8.671,0-18.261,0-27,0
			C907.25,109.518,963.662,53.105,1033.25,53.105z"/>
	</g>
</g>
<g id="verticale_lijnen">
	<g id="groot_rechts">
		<rect x="414" y="54" fill="#006C68" width="9" height="756"/>
		<rect x="1132.25" y="53.105" fill="#006C68" width="27" height="756"/>
		<rect x="1860.395" y="53.105" fill="#006C68" width="45" height="756"/>
	</g>
	<g id="groot_midden_2">
		<rect x="297" y="54" fill="#006C68" width="9" height="756"/>
		<rect x="1033.25" y="53.105" fill="#006C68" width="27" height="756"/>
		<rect x="1779.395" y="53.105" fill="#006C68" width="45" height="756"/>
	</g>
	<g id="groot_midden_1">
		<rect x="288" y="54" fill="#006C68" width="9" height="756"/>
		<rect x="1006.25" y="53.105" fill="#006C68" width="27" height="756"/>
		<rect x="1734.395" y="53.105" fill="#006C68" width="45" height="756"/>
	</g>
	<g id="groot_links">
		<rect x="171" y="54" fill="#006C68" width="9" height="756"/>
		<rect x="907.25" y="53.105" fill="#006C68" width="27" height="756"/>
		<rect x="1653.395" y="53.105" fill="#006C68" width="45" height="756"/>
	</g>
	<g id="boven_rechts">
		<rect x="414" y="54" fill="#006C68" width="9" height="378"/>
		<rect x="1132.25" y="53.105" fill="#006C68" width="27" height="378"/>
		<rect x="1860.395" y="53.105" fill="#006C68" width="45" height="378"/>
	</g>
	<g id="boven_midden_2">
		<rect x="297" y="54" fill="#006C68" width="9" height="378"/>
		<rect x="1033.25" y="53.105" fill="#006C68" width="27" height="378"/>
		<rect x="1779.395" y="53.105" fill="#006C68" width="45" height="378"/>
	</g>
	<g id="Boven_midden_1">
		<rect x="288" y="54" fill="#006C68" width="9" height="378"/>
		<rect x="1006.25" y="53.105" fill="#006C68" width="27" height="378"/>
		<rect x="1734.395" y="53.105" fill="#006C68" width="45" height="378"/>
	</g>
	<g id="boven_links">
		<rect x="171" y="54" fill="#006C68" width="9" height="378"/>
		<rect x="907.25" y="53.105" fill="#006C68" width="27" height="378"/>
		<rect x="1653.395" y="53.105" fill="#006C68" width="45" height="378"/>
	</g>
	<g id="onder_rechts">
		<rect x="414" y="432" fill="#006C68" width="9" height="378"/>
		<rect x="1132.25" y="431.105" fill="#006C68" width="27" height="378"/>
		<rect x="1860.395" y="431.105" fill="#006C68" width="45" height="378"/>
	</g>
	<g id="onder_midden_2">
		<rect x="297" y="432" fill="#006C68" width="9" height="378"/>
		<rect x="1033.25" y="431.105" fill="#006C68" width="27" height="378"/>
		<rect x="1779.395" y="431.105" fill="#006C68" width="45" height="378"/>
	</g>
	<g id="onder_midden_1">
		<rect x="288" y="432" fill="#006C68" width="9" height="378"/>
		<rect x="1006.25" y="431.105" fill="#006C68" width="27" height="378"/>
		<rect x="1734.395" y="431.105" fill="#006C68" width="45" height="378"/>
	</g>
	<g id="onder_links">
		<rect x="171" y="432" fill="#006C68" width="9" height="378"/>
		<rect x="907.25" y="431.105" fill="#006C68" width="27" height="378"/>
		<rect x="1653.395" y="431.105" fill="#006C68" width="45" height="378"/>
	</g>
	<g id="midden_groot_rechts">
		<rect x="414" y="171" fill="#006C68" width="9" height="522"/>
		<rect x="1132.25" y="152.105" fill="#006C68" width="27" height="558"/>
		<rect x="1860.436" y="134.105" fill="#006C68" width="45" height="594"/>
	</g>
	<g id="midden_groot_midden_2">
		<rect x="297" y="171" fill="#006C68" width="9" height="522"/>
		<rect x="1033.25" y="152.105" fill="#006C68" width="27" height="558"/>
		<rect x="1779.395" y="134.105" fill="#006C68" width="45" height="594"/>
	</g>
	<g id="midden_groot_midden_1">
		<rect x="288" y="171" fill="#006C68" width="9" height="522"/>
		<rect x="1006.25" y="152.105" fill="#006C68" width="27" height="558"/>
		<rect x="1734.436" y="134.105" fill="#006C68" width="45" height="594"/>
	</g>
	<g id="midden_groot_links">
		<rect x="171" y="171" fill="#006C68" width="9" height="522"/>
		<rect x="907.25" y="152.105" fill="#006C68" width="27" height="558"/>
		<rect x="1653.395" y="134.105" fill="#006C68" width="45" height="594"/>
	</g>
	<g id="midden_klein_rechts">
		<rect x="414" y="297" fill="#006C68" width="9" height="270"/>
		<rect x="1132.25" y="278.105" fill="#006C68" width="27" height="306"/>
		<rect x="1860.395" y="260.105" fill="#006C68" width="45" height="342"/>
	</g>
	<g id="midden_klein_midden_2">
		<rect x="297" y="297" fill="#006C68" width="9" height="270"/>
		<rect x="1033.25" y="278.105" fill="#006C68" width="27" height="306"/>
		<rect x="1779.395" y="260.105" fill="#006C68" width="45" height="342"/>
	</g>
	<g id="midden_klein_midden_1">
		<rect x="288" y="297" fill="#006C68" width="9" height="270"/>
		<rect x="1006.25" y="278.105" fill="#006C68" width="27" height="306"/>
		<rect x="1734.395" y="260.105" fill="#006C68" width="45" height="342"/>
	</g>
	<g id="midden_klein_links">
		<rect x="171" y="297" fill="#006C68" width="9" height="270"/>
		<rect x="907.25" y="278.105" fill="#006C68" width="27" height="306"/>
		<rect x="1653.395" y="260.105" fill="#006C68" width="45" height="342"/>
	</g>
</g>
<g id="bolletjes_klein">
	<g id="_x31_5">
		<circle fill="#F6B1A6" cx="414" cy="684" r="9"/>
		<circle fill="#F6B1A6" cx="1132.25" cy="683.105" r="27"/>
		<circle fill="#F6B1A6" cx="1860.395" cy="683.105" r="45"/>
	</g>
	<g id="_x31_4">
		<circle fill="#F6B1A6" cx="297" cy="684" r="9"/>
		<circle fill="#F6B1A6" cx="1033.25" cy="683.105" r="27"/>
		<circle fill="#F6B1A6" cx="1779.395" cy="683.105" r="45"/>
	</g>
	<g id="_x31_3">
		<circle fill="#F6B1A6" cx="180" cy="684" r="9"/>
		<circle fill="#F6B1A6" cx="934.25" cy="683.093" r="27"/>
		<circle fill="#F6B1A6" cx="1698.395" cy="683.105" r="45"/>
	</g>
	<g id="_x31_2_1_">
		<circle fill="#F6B1A6" cx="414" cy="558" r="9"/>
		<circle fill="#F6B1A6" cx="1132.25" cy="557.105" r="27"/>
		<circle fill="#F6B1A6" cx="1860.395" cy="557.105" r="45"/>
	</g>
	<g id="_x31_1_1_">
		<circle fill="#F6B1A6" cx="297" cy="558" r="9"/>
		<circle fill="#F6B1A6" cx="1033.25" cy="557.105" r="27"/>
		<circle fill="#F6B1A6" cx="1779.395" cy="557.105" r="45"/>
	</g>
	<g id="_x31_0_1_">
		<circle fill="#F6B1A6" cx="180" cy="558" r="9"/>
		<circle fill="#F6B1A6" cx="934.25" cy="557.093" r="27"/>
		<circle fill="#F6B1A6" cx="1698.395" cy="557.105" r="45"/>
	</g>
	<g id="_x39__1_">
		<circle fill="#F6B1A6" cx="414" cy="432" r="9"/>
		<circle fill="#F6B1A6" cx="1132.25" cy="431.118" r="27"/>
		<circle fill="#F6B1A6" cx="1860.395" cy="431.105" r="45"/>
	</g>
	<g id="_x38__1_">
		<circle fill="#F6B1A6" cx="297" cy="432" r="9"/>
		<circle fill="#F6B1A6" cx="1033.25" cy="431.118" r="27"/>
		<circle fill="#F6B1A6" cx="1779.395" cy="431.105" r="45"/>
	</g>
	<g id="_x37__1_">
		<circle fill="#F6B1A6" cx="180" cy="432" r="9"/>
		<circle fill="#F6B1A6" cx="934.25" cy="431.105" r="27"/>
		<circle fill="#F6B1A6" cx="1698.395" cy="431.105" r="45"/>
	</g>
	<g id="_x36__1_">
		<circle fill="#F6B1A6" cx="414" cy="306" r="9"/>
		<circle fill="#F6B1A6" cx="1132.25" cy="305.105" r="27"/>
		<circle fill="#F6B1A6" cx="1860.395" cy="305.105" r="45"/>
	</g>
	<g id="_x35__1_">
		<circle fill="#F6B1A6" cx="297" cy="306" r="9"/>
		<circle fill="#F6B1A6" cx="1033.25" cy="305.105" r="27"/>
		<circle fill="#F6B1A6" cx="1779.395" cy="305.105" r="45"/>
	</g>
	<g id="_x34__1_">
		<circle fill="#F6B1A6" cx="180" cy="306" r="9"/>
		<circle fill="#F6B1A6" cx="934.25" cy="305.093" r="27"/>
		<circle fill="#F6B1A6" cx="1698.395" cy="305.105" r="45"/>
	</g>
	<g id="_x33__1_">
		<circle fill="#F6B1A6" cx="414" cy="180" r="9"/>
		<circle fill="#F6B1A6" cx="1132.25" cy="179.041" r="27"/>
		<circle fill="#F6B1A6" cx="1860.395" cy="179.054" r="45"/>
	</g>
	<g id="_x32__1_">
		<circle fill="#F6B1A6" cx="297" cy="180" r="9"/>
		<circle fill="#F6B1A6" cx="1033.25" cy="179.118" r="27"/>
		<circle fill="#F6B1A6" cx="1779.395" cy="179.105" r="45"/>
	</g>
	<g id="_x31__1_">
		<circle fill="#F6B1A6" cx="180" cy="180" r="9"/>
		<circle fill="#F6B1A6" cx="934.25" cy="179.105" r="27"/>
		<circle fill="#F6B1A6" cx="1698.395" cy="179.105" r="45"/>
	</g>
</g>
</svg>
